<?xml version="1.0" standalone="no"?>
<!DOCTYPE svg PUBLIC "-//W3C//DTD SVG 20010904//EN"
 "http://www.w3.org/TR/2001/REC-SVG-20010904/DTD/svg10.dtd">
<svg version="1.0" xmlns="http://www.w3.org/2000/svg"
 width="700.000000pt" height="700.000000pt" viewBox="0 0 700.000000 700.000000"
 preserveAspectRatio="xMidYMid meet">
<metadata>
Created by potrace 1.11, written by Peter Selinger 2001-2013
</metadata>
<g transform="translate(0.000000,700.000000) scale(0.100000,-0.100000)"
fill="#000000" stroke="none">
<path d="M2400 6652 c-142 -46 -261 -157 -330 -305 -85 -182 -78 -407 17 -567
42 -71 121 -150 182 -183 135 -74 306 -71 457 6 74 38 162 110 218 177 31 39
93 162 110 220 19 65 22 184 6 255 -39 177 -194 338 -378 395 -77 24 -211 25
-282 2z"/>
<path d="M5227 5514 c-1 -1 -36 -4 -77 -8 -342 -27 -706 -165 -930 -351 -179
-148 -291 -295 -373 -485 -110 -259 -118 -581 -20 -800 59 -131 194 -250 356
-314 69 -27 197 -63 252 -71 17 -2 44 -6 60 -9 57 -9 121 -15 220 -21 136 -8
231 -15 285 -20 25 -3 70 -7 100 -10 30 -3 66 -7 80 -10 14 -2 43 -7 65 -10
22 -3 47 -7 55 -10 8 -2 33 -6 55 -10 141 -20 303 -88 384 -161 133 -119 147
-313 32 -432 -115 -119 -293 -171 -565 -167 -142 2 -171 6 -241 28 -161 53
-256 141 -310 289 l-23 63 -39 -2 c-47 -4 -162 -33 -454 -117 -412 -118 -487
-145 -474 -166 2 -3 6 -22 9 -44 12 -77 70 -230 117 -307 59 -99 132 -183 206
-240 32 -24 60 -46 63 -49 5 -5 28 -19 107 -62 128 -70 352 -138 538 -163 157
-21 229 -25 445 -24 179 0 227 2 315 13 28 3 79 8 115 11 35 4 67 8 70 10 3 1
32 6 65 10 47 5 255 45 310 59 467 120 723 321 805 631 29 114 27 314 -5 452
-29 123 -65 222 -114 315 -33 64 -106 183 -121 198 -3 3 -17 21 -32 40 -41 55
-136 151 -212 215 -262 219 -588 342 -1126 424 -178 28 -178 28 -270 57 -166
52 -236 152 -205 295 32 146 214 281 425 315 146 23 331 -1 436 -58 113 -61
221 -192 255 -305 9 -33 17 -43 33 -43 33 -1 197 -23 256 -35 108 -21 144 -29
210 -47 147 -38 317 -96 382 -129 10 -5 20 -9 24 -9 9 0 -5 87 -32 198 -96
388 -346 722 -674 899 -103 56 -263 114 -380 137 -14 3 -36 7 -49 10 -54 12
-144 19 -269 20 -73 1 -134 1 -135 0z"/>
<path d="M2980 5120 c-19 -4 -53 -11 -75 -14 -22 -3 -50 -7 -61 -10 -12 -2
-39 -7 -60 -10 -22 -4 -46 -8 -54 -11 -8 -2 -35 -6 -60 -9 -25 -3 -56 -8 -70
-11 -14 -3 -45 -8 -70 -11 -25 -3 -73 -10 -108 -15 -34 -5 -84 -12 -110 -15
-26 -3 -60 -7 -77 -10 -16 -2 -63 -7 -103 -11 -41 -3 -76 -11 -78 -17 -2 -6
-5 -857 -6 -1891 l-3 -1880 -30 -59 c-42 -84 -130 -147 -223 -162 -20 -3 -46
-7 -57 -9 -11 -2 -71 -4 -132 -4 l-113 -1 0 -310 0 -311 278 4 c247 4 302 7
377 21 229 44 364 94 498 185 197 134 311 317 367 589 18 91 19 139 20 762 1
366 2 1238 3 1939 1 822 -2 1275 -8 1277 -6 1 -26 -2 -45 -6z"/>
<path d="M366 2503 c-158 -47 -241 -181 -229 -374 17 -273 208 -542 459 -645
93 -38 251 -44 340 -14 123 43 213 120 267 229 30 62 32 71 32 181 0 109 -2
119 -32 182 -43 92 -86 153 -152 217 -104 100 -246 181 -381 216 -85 23 -240
27 -304 8z"/>
</g>
</svg>
