<?xml version="1.0" standalone="no"?>
<!DOCTYPE svg PUBLIC "-//W3C//DTD SVG 20010904//EN"
 "http://www.w3.org/TR/2001/REC-SVG-20010904/DTD/svg10.dtd">
<svg aria-hidden="true" version="1.0" xmlns="http://www.w3.org/2000/svg"
 width="100" height="100" viewBox="0 0 1345.000000 1345.000000"
 preserveAspectRatio="xMidYMid meet">
 <title>Jewell Scott</title>
<g transform="translate(0.000000,1345.000000) scale(0.100000,-0.100000)"
fill="#000000" stroke="none">
<path d="M4728 12810 c-362 -61 -679 -356 -808 -749 -88 -271 -78 -588 28
-840 86 -205 257 -393 439 -485 296 -148 658 -111 975 100 410 273 623 761
519 1189 -96 395 -424 702 -834 780 -83 16 -239 18 -319 5z"/>
<path d="M10030 10593 c-231 -16 -428 -43 -632 -89 -1123 -248 -1936 -985
-2133 -1931 -36 -174 -48 -326 -42 -523 13 -404 115 -682 334 -910 279 -293
763 -459 1458 -500 99 -5 257 -15 350 -20 449 -27 997 -111 1235 -190 206 -67
353 -153 466 -272 119 -126 174 -260 174 -426 0 -200 -91 -356 -283 -482 -150
-99 -356 -166 -617 -201 -147 -20 -482 -17 -615 5 -423 70 -690 283 -795 636
-12 41 -25 82 -29 92 -5 14 -38 8 -296 -57 -408 -103 -1093 -302 -1473 -427
l-94 -30 7 -52 c13 -89 63 -283 101 -384 225 -602 713 -994 1479 -1187 350
-88 655 -124 1130 -132 347 -6 518 3 920 48 1421 157 2195 566 2423 1279 56
175 67 254 67 485 0 235 -13 338 -70 560 -47 182 -97 315 -186 495 -345 694
-989 1221 -1794 1468 -365 112 -751 195 -1140 247 -381 50 -621 129 -749 246
-139 126 -165 346 -66 548 35 71 59 102 134 176 226 223 576 339 971 322 313
-14 551 -111 746 -306 128 -128 217 -282 259 -447 l10 -41 160 -16 c478 -51
1007 -183 1438 -360 l132 -54 0 28 c0 48 -48 289 -84 419 -104 378 -289 745
-523 1035 -103 127 -310 330 -433 421 -401 301 -871 475 -1410 524 -104 9
-418 11 -530 3z"/>
<path d="M5765 9845 c-21 -9 -643 -116 -870 -150 -265 -40 -631 -87 -827 -105
l-128 -13 -3 -3601 c-2 -3371 -3 -3605 -20 -3664 -38 -141 -111 -247 -216
-315 -157 -103 -264 -127 -593 -134 l-248 -5 0 -588 0 -587 92 -7 c142 -10
677 -7 833 4 527 39 963 169 1276 378 422 283 642 655 746 1262 17 100 18 297
20 3818 l3 3712 -27 -1 c-16 0 -32 -2 -38 -4z"/>
<path d="M754 4825 c-242 -53 -408 -209 -470 -440 -25 -94 -30 -293 -10 -416
90 -544 502 -1028 984 -1156 83 -22 119 -26 252 -27 132 0 168 3 240 23 172
46 304 125 422 249 84 89 141 186 181 304 29 87 31 102 32 243 0 180 -16 250
-100 420 -190 387 -629 703 -1103 795 -121 24 -332 26 -428 5z"/>
</g>
</svg>
